<?xml version="1.0" encoding="utf-8"?>
<!-- Svg Vector Icons : http://www.onlinewebfonts.com/icon -->
<!DOCTYPE svg PUBLIC "-//W3C//DTD SVG 1.1//EN" "http://www.w3.org/Graphics/SVG/1.1/DTD/svg11.dtd">
<svg version="1.1" xmlns="http://www.w3.org/2000/svg" xmlns:xlink="http://www.w3.org/1999/xlink" x="0px" y="0px" viewBox="0 0 1000 1000" enable-background="new 0 0 1000 1000" xml:space="preserve">
<metadata> Svg Vector Icons : http://www.onlinewebfonts.com/icon </metadata>
<g><g transform="translate(0.000000,492.000000) scale(0.100000,-0.100000)"><path d="M567.7,4621.3c-97.8-42.2-138-207-69-285.6c17.3-23,555.9-329.7,1194.2-684.3c845.3-467.7,1178.9-642.1,1222.9-642.1c34.5,0,509.9,120.8,1058.1,270.3l994.8,270.3l122.7-93.9c67.1-51.7,1004.4-770.6,2079.7-1598.6L9128.3,354.4l-408.3-9.6c-279.9-5.8-419.8-17.2-448.6-34.5c-44.1-23-101.6-115-101.6-157.2c0-51.8,63.2-149.5,107.3-170.6c32.6-13.4,262.6-21.1,738-21.1h692l55.6,55.6c30.7,30.7,55.6,72.8,55.6,92s21.1,343.1,47.9,720.7c49.8,726.5,49.8,734.2-36.4,803.2c-49.8,40.2-161,44.1-214.7,5.7c-69-46-82.4-116.9-113.1-594.2c-17.2-253-32.6-461.9-36.4-463.9c-1.9-1.9-983.3,747.6-2179.4,1665.7C6090.1,3164.5,5091.4,3925.4,5064.6,3935c-38.3,15.3-253-36.4-1083-262.6l-1037-279.9l-1109.8,615.3c-611.5,337.4-1136.7,619.1-1169.3,623C634.8,4634.7,588.8,4630.8,567.7,4621.3z"/><path d="M100-1035.3v-3757h584.6h584.6v3757v3757H684.6H100V-1035.3z"/><path d="M4286.4,1573.5c-3.8-3.8-7.7-1439.6-7.7-3187.7v-3178.1h584.6H5448v3181.9v3181.9l-157.2,1.9C4667.8,1579.2,4294,1579.2,4286.4,1573.5z"/><path d="M2189.4-2080v-2712.3H2774h584.6V-2080V632.3H2774h-584.6V-2080z"/><path d="M6368-2933v-1859.3h584.6h584.6V-2933v1859.3h-584.6H6368V-2933z"/><path d="M8649.1-3508v-1284.3h584.6h584.6V-3508v1284.3h-584.6h-584.6V-3508z"/></g></g>
</svg>